<?xml version="1.0" encoding="utf-8"?>
<?xml-stylesheet type="text/xsl" href="rss1.xsl"?>
<rss version="2.0" xmlns:atom="http://www.w3.org/2005/Atom" xmlns:content="http://purl.org/rss/1.0/modules/content/" xmlns:dc="http://purl.org/dc/elements/1.1/" xmlns:media="http://search.yahoo.com/mrss/">
<channel>
 <title>sharemania</title>
 <link>http://www.sharemania.us/</link>
 <atom:link href="http://www.gettyimg.com/" rel="self" type="application/rss+xml" />

 
                <item>
                <title><![CDATA[【Requests】[REQ AUD] - Lady Gaga - MAYHEM (New Version) Qobuz HiRes Audio]]></title>
                <link><![CDATA[https://sharemania.us/threads/lady-gaga-mayhem-new-version-qobuz-hires-audio.283214/]]></link>
                <description><![CDATA[<article>
				<blockquote class="messageText SelectQuoteContainer ugc baseHtml">
					
					Does anyone have a directly rip of the new Version of Mayhem in HiRes from Qobuz?
					<div class="messageTextEndMarker">&nbsp;</div>
				</blockquote>
			</article>]]></description>
                <author><![CDATA[KevFS1993]]></author>
                </item>

                
                <item>
                <title><![CDATA[【Interviews / TV shows / Others】WEB-RiP - Sabrina Carpenter - The Zane Lowe Interview (2025) 1080p AM WEB-DL AAC.2.0 H.264-SZYMIX]]></title>
                <link><![CDATA[https://sharemania.us/threads/sabrina-carpenter-the-zane-lowe-interview-2025-1080p-am-web-dl-aac-2-0-h-264-szymix.283212/]]></link>
                <description><![CDATA[<article>
				<blockquote class="messageText SelectQuoteContainer ugc baseHtml">
					
					<img src="https://pbs.twimg.com/media/Gz79Eq0bkAM51C5?format=jpg&amp;name=4096x4096" class="bbCodeImage LbImage" alt="[​IMG]" data-url="https://pbs.twimg.com/media/Gz79Eq0bkAM51C5?format=jpg&amp;name=4096x4096" style=""> <br>
<img src="https://i.postimg.cc/HWXjgQ7L/Sabrina-Carpenter-The-Zane-Lowe-Interview-2025-1080p-AM-WEB-DL-AAC-2-0-H-264-SZYMIX-mp4.jpg" class="bbCodeImage LbImage" alt="[​IMG]" data-url="https://i.postimg.cc/HWXjgQ7L/Sabrina-Carpenter-The-Zane-Lowe-Interview-2025-1080p-AM-WEB-DL-AAC-2-0-H-264-SZYMIX-mp4.jpg" style=""> <br>



<div class="ToggleTriggerAnchor bbCodeSpoilerContainer">
	<button type="button" class="button bbCodeSpoilerButton ToggleTrigger Tooltip JsOnly" data-target="&gt; .SpoilerTarget"><span>Spoiler: <span class="SpoilerTitle">Media Info</span></span></button>
	<div class="SpoilerTarget bbCodeSpoilerText">General<br>
Complete name                            : Sabrina Carpenter_ The Zane Lowe Interview (2025) 1080p AM WEB-DL AAC.2.0 H.264-SZYMIX.mp4<br>
Format                                   : MPEG-4<br>
Format profile                           : Base Media<br>
Codec ID                                 : isom (isom/iso4)<br>
File size                                : 2.72 GiB<br>
Duration                                 : 54 min 35 s<br>
Overall bit rate mode                    : Variable<br>
Overall bit rate                         : 7 130 kb/s<br>
Frame rate                               : 29.970 FPS<br>
Title                                    : Sabrina Carpenter: The Zane Lowe Interview (2025)<br>
Performer                                : Zane Lowe &amp; サブリナ・カーペンター<br>
Genre                                    : ポップ<br>
Recorded date                            : 2025-09-03<br>
Encoded date                             : 2025-09-03 09:02:11 UTC<br>
Tagged date                              : 2025-09-03 09:02:11 UTC<br>
ISRC                                     : US23A9127932<br>
Cover                                    : Yes<br>
Cover type                               : Cover<br>
Rating                                   : None<br>
trk                                      : 0<br>
<br>
Video<br>
ID                                       : 1<br>
Format                                   : AVC<br>
Format/Info                              : Advanced Video Codec<br>
Format profile                           : High@L4<br>
Format settings                          : CABAC / 4 Ref Frames<br>
Format settings, CABAC                   : Yes<br>
Format settings, Reference frames        : 4 frames<br>
Format settings, Slice count             : 8 slices per frame<br>
Codec ID                                 : avc1<br>
Codec ID/Info                            : Advanced Video Coding<br>
Duration                                 : 54 min 35 s<br>
Bit rate                                 : 6 858 kb/s<br>
Maximum bit rate                         : 10.8 Mb/s<br>
Width                                    : 1 920 pixels<br>
Height                                   : 1 080 pixels<br>
Display aspect ratio                     : 16:9<br>
Frame rate mode                          : Constant<br>
Frame rate                               : 29.970 (30000/1001) FPS<br>
Color space                              : YUV<br>
Chroma subsampling                       : 4:2:0 (Type 2)<br>
Bit depth                                : 8 bits<br>
Scan type                                : Progressive<br>
Bits/(Pixel*Frame)                       : 0.110<br>
Stream size                              : 2.62 GiB (96%)<br>
Title                                    : Core Media Video<br>
Encoded date                             : 2025-09-03 09:02:11 UTC<br>
Tagged date                              : 2025-09-03 20:11:20 UTC<br>
Color range                              : Limited<br>
Color primaries                          : BT.709<br>
Transfer characteristics                 : BT.709<br>
Matrix coefficients                      : BT.709<br>
Codec configuration box                  : avcC<br>
<br>
Audio<br>
ID                                       : 2<br>
Format                                   : AAC LC<br>
Format/Info                              : Advanced Audio Codec Low Complexity<br>
Codec ID                                 : 2 / 40 / mp4a-40-2<br>
Duration                                 : 54 min 35 s<br>
Duration_LastFrame                       : -21 ms<br>
Bit rate mode                            : Variable<br>
Bit rate                                 : 265 kb/s<br>
Maximum bit rate                         : 451 kb/s<br>
Channel(s)                               : 2 channels<br>
Channel layout                           : L R<br>
Sampling rate                            : 48.0 kHz<br>
Frame rate                               : 46.875 FPS (1024 SPF)<br>
Compression mode                         : Lossy<br>
Stream size                              : 104 MiB (4%)<br>
Title                                    : Core Media Audio<br>
Encoded date                             : 2025-09-03 09:01:48 UTC<br>
Tagged date                              : 2025-09-03 20:11:24 UTC<br>
<br>
Image<br>
Type                                     : Cover<br>
Format                                   : JPEG<br>
Muxing mode                              : moov-meta-covr<br>
Width                                    : 5 000 pixels<br>
Height                                   : 2 813 pixels<br>
Color space                              : YUV<br>
Chroma subsampling                       : 4:2:0<br>
Bit depth                                : 8 bits<br>
Compression mode                         : Lossy<br>
Stream size                              : 729 KiB (0%) / 729 KiB (0%) / 729 KiB (0%)</div>
</div>Downloaded by me <img src="styles/default/xenforo/smilies/big_smile-48.png" class="mceSmilie" alt=":)" title="Smile    :)"><br>




<div class="bbCodeBlock bbCodeVfcHH HiddenContent">
	<div class="attribution type">Hidden Content:</div>
	<blockquote>You must either reply or click 'Like' to see the hidden information contained here.</blockquote>
</div>
					<div class="messageTextEndMarker">&nbsp;</div>
				</blockquote>
			</article>]]></description>
                <author><![CDATA[szymek04sawicki]]></author>
                </item>

                
                <item>
                <title><![CDATA[【Albums (lossless)】FLAC - Martin Solveig – Smash (2012) (CD FLAC)]]></title>
                <link><![CDATA[https://sharemania.us/threads/martin-solveig-%E2%80%93-smash-2012-cd-flac.283213/]]></link>
                <description><![CDATA[<article>
				<blockquote class="messageText SelectQuoteContainer ugc baseHtml">
					
					<img src="https://is1-ssl.mzstatic.com/image/thumb/Music116/v4/c3/fb/1b/c3fb1b88-0a63-f0fe-b3c8-bbf00d90aa25/4099964002249.jpg/600x600bb.jpg" class="bbCodeImage LbImage" alt="[​IMG]" data-url="https://is1-ssl.mzstatic.com/image/thumb/Music116/v4/c3/fb/1b/c3fb1b88-0a63-f0fe-b3c8-bbf00d90aa25/4099964002249.jpg/600x600bb.jpg" style=""><br>
 <br>
<ol>
<li><span style="font-size: 18px"><b>Martin Solveig – <i>Smash</i> (CD, FLAC)</b></span><ol>
<li>Hello (with Dragonette) – 4:42<br>
<br>
</li>
<li>Ready 2 Go (feat. Kele) – 4:25<br>
<br>
</li>
<li>The Night Out – 3:52<br>
<br>
</li>
<li>Can’t Stop (with Dragonette) – 3:37<br>
<br>
</li>
<li>Racer 21 – 3:11<br>
<br>
</li>
<li>We Came to Smash (feat. Dev) – 3:23<br>
<br>
</li>
<li>Big in Japan (feat. Dragonette &amp; Idoling!!!) – 3:06<br>
<br>
</li>
<li>Get Away from You – 2:24<br>
<br>
</li>
<li>Boys &amp; Girls (feat. Dragonette) – 3:45<br>
<br>
</li>
<li>Let’s Not Play Games (feat. Sunday Girl) – 3:15<br>
<br>
</li>
<li>The Night Out (Madeon Remix) – 3:40<br>
<br>
</li>
<li>Hello (Dada Life Remix) – 5:33<br>
<br>
</li>
<li>Ready 2 Go (Hardwell Remix) – 5:26</li>
</ol></li>
</ol><b><span style="font-size: 12px">(MAIN ALBUM)</span><br>
[/URL] 



<div class="bbCodeBlock bbCodeVfcHH HiddenContent">
	<div class="attribution type">Hidden Content:</div>
	<blockquote>You must reply before you can see the hidden data contained here.</blockquote>
</div></b>
					<div class="messageTextEndMarker">&nbsp;</div>
				</blockquote>
			</article>]]></description>
                <author><![CDATA[gamerfronts]]></author>
                </item>

                </channel></rss>